<svg width="24" height="27" viewBox="0 0 24 27" fill="none" xmlns="http://www.w3.org/2000/svg">
<path d="M12.2973 8.6333L23.4229 12.648L23.9612 15.0894L13.5159 14.1593L14.9586 20.7021L19.0691 21.9283L19.4728 23.7593L13.7106 23.7499L8.48677 26.1818L8.08301 24.3508L11.2963 21.5084L9.85358 14.9656L0.768375 20.2036L0.230035 17.7622L8.63532 9.44081L7.16916 2.79179C7.06207 2.30618 7.15229 1.79791 7.41995 1.37881C7.68761 0.959713 8.1108 0.664107 8.59641 0.557024C9.08203 0.449942 9.59029 0.540155 10.0094 0.807818C10.4285 1.07548 10.7241 1.49867 10.8312 1.98428L12.2973 8.6333Z" fill="#0DBD3E"/>
</svg>
