<svg width="50" height="50" fill="none" xmlns="http://www.w3.org/2000/svg">
    <path
        d="M26.602,24.568l15.401,6.072l-0.389-4.902c-10.271-7.182-9.066-6.481-14.984-10.615V2.681   c0-1.809-1.604-2.701-3.191-2.681c-1.587-0.021-3.19,0.872-3.19,2.681v12.44c-5.918,4.134-4.714,3.434-14.985,10.615l-0.39,4.903   l15.401-6.072c0,0-0.042,15.343-0.006,15.581l-5.511,3.771v2.957l7.044-2.427h3.271l7.046,2.427V43.92l-5.513-3.771   C26.644,39.909,26.602,24.568,26.602,24.568z"
        fill="#0DBD3E" />
</svg>